<svg width="150" height="150" viewBox="0 0 150 150" fill="none" xmlns="http://www.w3.org/2000/svg">
<g clip-path="url(#clip0_6036_32880)">
<path d="M149.866 74.9739C149.866 116.19 116.455 149.601 75.2387 149.601C34.0238 149.601 0.611816 116.19 0.611816 74.9739C0.611816 33.7582 34.0238 0.346985 75.2387 0.346985C116.455 0.346985 149.866 33.7582 149.866 74.9739Z" fill="#1BA27A"/>
<path d="M110.263 37.9783H39.5991V55.038H66.4014V80.1127H83.4611V55.038H110.263V37.9783Z" fill="white"/>
<path d="M75.0933 82.7836C52.9216 82.7836 34.9462 79.2746 34.9462 74.9455C34.9462 70.6171 52.9209 67.1074 75.0933 67.1074C97.2649 67.1074 115.24 70.6171 115.24 74.9455C115.24 79.2746 97.2649 82.7836 75.0933 82.7836ZM120.172 76.2522C120.172 70.6701 99.9895 66.1455 75.0933 66.1455C50.1977 66.1455 30.0142 70.6701 30.0142 76.2522C30.0142 81.1679 45.6642 85.2634 66.4022 86.1709V122.166H83.4604V86.1851C104.358 85.306 120.172 81.1933 120.172 76.2522Z" fill="white"/>
</g>
<defs>
<clipPath id="clip0_6036_32880">
<rect width="150" height="150" fill="white"/>
</clipPath>
</defs>
</svg>
